PathFileType  4	(X/Y/Z) C:\Users\antoi\Documents\MyRepositories\mobilecap\ResultsAnalysis
DataRate	CameraRate	NumFrames	NumMarkers	Units	OrigDataRate	OrigDataStartFrame	OrigNumFrames
100.0	100.0	5	51	mm	100.0	121	138
Frame#	Time	r_knee			r_shank_antsup			r_ankle			r_calc			r_5meta			r_toe			L_knee			L_shank_antsup			L_ankle			L_calc			L_5meta			L_toe			r_sh2			r_sh3			r_sh4			L_sh2			L_sh3			r_thigh1			r_thigh2			r_thigh3			r_thigh4			r_thigh5			L_thigh1			L_thigh2			L_thigh3			L_thigh4			r.ASIS			r.PSIS			L.ASIS			L.PSIS			C7			R_Shoulder			L_Shoulder			R_Sternum			L_Sternum			R_humerus			R_elbow_med			R_elbow_lat			R_forearm			R_wrist_radius			R_wrist_ulna			L_humerus			L_elbow_med			L_elbow_lat			L_forearm			L_wrist_radius			L_wrist_ulna			R_HJC			L_HJC			R_HJC_reg			L_HJC_reg			
		X1	Y1	Z1	X2	Y2	Z2	X3	Y3	Z3	X4	Y4	Z4	X5	Y5	Z5	X6	Y6	Z6	X7	Y7	Z7	X8	Y8	Z8	X9	Y9	Z9	X10	Y10	Z10	X11	Y11	Z11	X12	Y12	Z12	X13	Y13	Z13	X14	Y14	Z14	X15	Y15	Z15	X16	Y16	Z16	X17	Y17	Z17	X18	Y18	Z18	X19	Y19	Z19	X20	Y20	Z20	X21	Y21	Z21	X22	Y22	Z22	X23	Y23	Z23	X24	Y24	Z24	X25	Y25	Z25	X26	Y26	Z26	X27	Y27	Z27	X28	Y28	Z28	X29	Y29	Z29	X30	Y30	Z30	X31	Y31	Z31	X32	Y32	Z32	X33	Y33	Z33	X34	Y34	Z34	X35	Y35	Z35	X36	Y36	Z36	X37	Y37	Z37	X38	Y38	Z38	X39	Y39	Z39	X40	Y40	Z40	X41	Y41	Z41	X42	Y42	Z42	X43	Y43	Z43	X44	Y44	Z44	X45	Y45	Z45	X46	Y46	Z46	X47	Y47	Z47	X48	Y48	Z48	X49	Y49	Z49	X50	Y50	Z50	X51	Y51	Z51	

121	1.20000000	1519.32394	543.26038	-98.46275	1579.32084	427.53658	-113.94726	1543.79467	89.74674	-135.46946	1485.04603	59.66258	-189.46834	1680.75954	32.46644	-86.92863	1719.31025	66.62623	-152.37777	1191.66329	525.23233	-421.36564	1170.52376	411.49483	-406.24327	902.99298	168.60440	-390.87861	833.89417	178.88244	-340.55303	989.82577	32.88494	-405.16554	1023.69156	47.01211	-336.45658	1601.25913	317.93581	-137.98594	1520.00847	405.06436	-69.78086	1547.34759	291.63804	-78.94207	1099.78763	454.84736	-442.33760	1049.52436	344.34514	-452.82694	1522.67283	790.68914	-97.48181	1563.61755	687.52831	-115.66823	1540.97880	645.84758	-65.96356	1439.85978	745.55544	-34.11762	1485.37770	640.97650	-58.30488	1344.27499	745.21050	-441.17648	1316.43987	611.97022	-430.23177	1235.00988	764.74605	-464.67012	1206.49361	629.63974	-442.71243	1412.10618	1013.90973	-108.84867	1207.49362	1039.66001	-197.08649	1418.82486	999.76240	-377.82751	1210.42772	1041.58618	-294.09772	1297.59426	1543.13182	-234.25781	1339.65830	1455.72997	-46.36185	1382.46434	1491.23358	-405.58638	1426.21188	1449.46512	-198.44463	1428.32527	1450.41029	-245.87467	1315.12054	1284.01457	20.07695	1219.97836	1076.53707	-45.14247	1223.32013	1098.15687	35.56295	1288.91425	939.76053	67.33085	1298.92501	817.57465	82.81906	1261.25284	815.84681	103.51584	1407.97721	1326.98182	-488.78204	1347.56367	1104.78632	-476.85256	1392.54578	1130.30109	-540.09712	1527.65604	1049.56961	-473.94955	1615.00840	968.29189	-470.92459	1599.29456	949.61081	-513.54620	1332.08433	931.00536	-142.90868	1337.56005	911.64722	-355.35383	1342.31976	920.77989	-150.98711	1347.68902	924.31250	-328.70198	
122	1.21000000	1533.12159	544.00047	-96.71904	1590.60927	426.27522	-112.84228	1545.37158	89.98880	-135.65641	1485.78270	60.53277	-189.51281	1681.11174	32.37226	-86.73209	1720.31808	64.36790	-153.00899	1214.68555	523.24449	-422.25109	1190.31317	410.31762	-408.28608	915.62739	176.71171	-391.86653	847.65457	192.24168	-340.59016	992.31203	34.59930	-405.11147	1026.82866	47.04199	-336.42531	1609.03869	316.09758	-137.50946	1530.82033	405.27444	-68.54106	1555.01907	291.20101	-78.13542	1120.98369	456.76703	-442.41329	1066.84879	348.06589	-453.92569	1537.70170	791.98029	-93.90384	1578.16437	688.70664	-112.70028	1555.27677	646.87258	-63.25518	1454.19004	746.64974	-31.56541	1499.71118	642.22471	-55.84979	1362.89488	745.71627	-440.16920	1338.05798	611.72910	-430.65710	1253.24586	763.21894	-462.76575	1227.71219	627.34881	-442.40340	1427.01184	1016.17152	-106.82064	1222.52011	1040.88201	-195.44553	1433.55168	1000.63224	-375.35554	1225.28463	1042.68607	-292.73785	1311.63138	1544.54471	-231.31075	1353.91983	1456.98464	-43.64319	1396.22657	1493.18894	-402.76939	1440.37242	1451.03272	-195.78991	1442.34091	1452.01320	-243.21534	1329.65502	1285.06661	22.31989	1235.37613	1077.51524	-43.87106	1238.28537	1098.89851	36.90231	1304.51307	940.55838	68.08915	1315.30885	818.53156	83.13454	1277.41555	816.49919	103.86596	1420.20578	1328.53496	-486.41408	1356.91218	1107.24481	-473.35254	1401.75435	1131.86998	-537.13946	1535.73567	1047.74900	-472.79495	1620.78680	964.29291	-471.07198	1604.62741	946.38496	-513.75685	1347.01029	932.92242	-140.54132	1352.74042	912.49084	-352.87942	1357.72550	922.27604	-148.60238	1362.77018	925.55959	-326.09352	
123	1.22000000	1545.96781	544.40374	-95.05193	1600.80008	424.87464	-111.62533	1546.55248	90.14681	-135.87154	1486.23306	61.17205	-189.53954	1681.34735	32.53456	-86.56331	1720.98756	62.69979	-153.55222	1238.95699	521.07563	-423.51997	1211.70259	408.95785	-410.43740	930.14615	185.47881	-392.99931	863.65451	206.55554	-340.92192	995.35814	37.46919	-405.15311	1030.61654	47.91298	-336.50701	1615.89195	314.22295	-136.91619	1540.44972	405.27418	-67.37897	1561.68717	290.63675	-77.32371	1143.96352	458.44679	-442.95386	1086.07332	351.70052	-455.32414	1552.37376	792.98172	-91.08858	1591.98662	689.44077	-110.38347	1569.08391	647.64505	-61.02001	1468.41258	747.78238	-29.25377	1513.61229	643.32062	-53.64510	1381.86474	746.35910	-439.41819	1360.56815	611.65364	-431.57974	1271.85181	761.46225	-461.15938	1249.84201	624.78847	-442.68806	1441.93065	1018.67350	-104.69337	1237.47837	1042.19637	-193.61402	1447.98151	1001.74356	-372.78370	1239.86709	1044.06754	-291.15654	1325.57416	1546.12156	-228.40668	1368.27063	1458.52732	-41.00299	1409.79245	1495.33882	-400.03458	1454.46926	1452.76463	-193.26380	1456.26894	1453.77281	-240.68550	1344.27927	1286.45451	24.58148	1250.69900	1078.87666	-42.51143	1253.30737	1099.96456	38.33565	1320.35286	941.75228	68.88210	1332.19141	819.96596	83.45680	1293.94801	817.48478	104.18108	1432.24358	1330.39013	-484.20160	1366.16024	1110.01676	-469.78120	1410.81333	1133.74028	-534.20112	1543.48800	1046.06546	-471.82152	1626.00483	960.26060	-471.45780	1609.33040	943.22731	-514.20538	1361.89159	935.04496	-138.05557	1367.69590	913.57387	-350.28942	1373.30788	923.72369	-146.14450	1377.65798	927.11167	-323.40613	
124	1.23000000	1557.76577	544.49085	-93.49989	1609.98769	423.41177	-110.40130	1547.48251	90.24752	-136.06851	1486.52735	61.69230	-189.53226	1681.49515	32.73399	-86.41272	1721.44347	61.43561	-153.95112	1264.26771	518.78504	-425.10862	1234.63469	407.46154	-412.52623	946.47109	194.88716	-394.23741	881.91770	221.61942	-341.60455	999.11905	41.74188	-405.29943	1035.18562	49.89229	-336.75353	1622.01073	312.39943	-136.28208	1549.05686	405.10119	-66.30365	1567.57158	289.99192	-76.51861	1168.57679	459.82944	-443.94595	1107.02378	355.19635	-456.86173	1566.60350	793.56514	-88.99777	1604.90419	689.55778	-108.69541	1582.19298	648.00500	-59.24144	1482.38698	748.86462	-27.17612	1526.85287	644.15120	-51.69491	1401.07375	747.09890	-438.92514	1383.77610	611.75110	-432.91422	1290.73486	759.46406	-459.85543	1272.71765	622.01034	-443.49859	1456.85225	1021.24397	-102.57134	1252.31381	1043.60105	-191.52875	1462.03952	1003.01257	-370.22496	1254.12473	1045.59595	-289.29129	1339.40326	1547.79145	-225.56526	1382.70597	1460.25736	-38.45717	1423.11680	1497.57940	-397.42133	1468.47992	1454.58704	-190.90192	1470.08797	1455.61883	-238.32097	1359.01127	1288.07627	26.85242	1265.90913	1080.51903	-41.01266	1268.39716	1101.25715	39.90869	1336.42541	943.24744	69.73153	1349.49402	821.74818	83.80821	1310.83227	818.70285	104.49365	1444.04626	1332.41660	-482.13566	1375.33557	1112.94905	-466.21559	1419.72027	1135.78542	-531.31802	1550.96272	1044.47946	-471.06894	1630.78407	956.23441	-472.11195	1613.48557	940.13801	-514.89845	1376.71065	937.24990	-135.50199	1382.29539	914.81119	-347.64127	1388.90002	925.21762	-143.60750	1392.19471	928.82043	-320.64016	
125	1.24000000	1568.54722	544.33201	-92.11490	1618.30951	421.95795	-109.30916	1548.27569	90.32881	-136.22801	1486.76569	62.17495	-189.48625	1681.58239	32.87142	-86.28770	1721.77029	60.42863	-154.21941	1290.37516	516.50457	-426.92855	1258.94012	405.98799	-414.42666	964.48277	204.84704	-395.50937	902.42073	237.15189	-342.59893	1003.82915	47.54357	-405.53641	1040.72769	53.10880	-337.18586	1627.56868	310.69465	-135.72497	1556.86206	404.80667	-65.33918	1572.90675	289.31767	-75.76625	1194.57040	460.98389	-445.31016	1129.45011	358.57907	-458.37201	1580.32972	793.73169	-87.54008	1616.87551	689.07024	-107.57519	1594.54470	647.93840	-57.88086	1496.01934	749.86529	-25.31167	1539.36947	644.71702	-49.98079	1420.42836	747.94858	-438.67121	1407.46506	612.06600	-434.53538	1309.81945	757.28910	-458.80737	1296.15176	619.14542	-444.68908	1471.74640	1023.70192	-100.57796	1266.97196	1045.11042	-189.16435	1475.66907	1004.37894	-367.81413	1268.04442	1047.14169	-287.11105	1353.09998	1549.50169	-222.80606	1397.22154	1462.08367	-36.01528	1436.16091	1499.82704	-394.96343	1482.38792	1456.44879	-188.73276	1483.77805	1457.50108	-236.14892	1373.87450	1289.83603	29.11726	1280.99267	1082.33912	-39.33117	1283.57746	1102.68765	41.65832	1352.72865	944.95466	70.64991	1367.08562	823.72205	84.19449	1328.05436	820.06247	104.83321	1455.55993	1334.48997	-480.20074	1384.44301	1115.90085	-462.72472	1428.46150	1137.88648	-528.51864	1558.20178	1042.94759	-470.57098	1635.24055	952.25694	-473.06460	1617.17498	937.11141	-515.84040	1391.44313	939.41227	-132.96613	1396.42785	916.13749	-345.02762	1404.28998	926.88222	-141.02175	1406.24377	930.54701	-317.83088	
